<svg width="20" height="20" viewBox="0 0 20 20" fill="none" xmlns="http://www.w3.org/2000/svg">
<path fill-rule="evenodd" clip-rule="evenodd" d="M11.5 4H4.5C3.70435 4 2.94129 4.31607 2.37868 4.87868C1.81607 5.44129 1.5 6.20435 1.5 7V13C1.5 13.7956 1.81607 14.5587 2.37868 15.1213C2.94129 15.6839 3.70435 16 4.5 16H11.5C12.2956 16 13.0587 15.6839 13.6213 15.1213C14.1839 14.5587 14.5 13.7956 14.5 13V7C14.5 6.20435 14.1839 5.44129 13.6213 4.87868C13.0587 4.31607 12.2956 4 11.5 4ZM3.5 7C3.5 6.73478 3.60536 6.48043 3.79289 6.29289C3.98043 6.10536 4.23478 6 4.5 6H11.5C11.7652 6 12.0196 6.10536 12.2071 6.29289C12.3946 6.48043 12.5 6.73478 12.5 7V13C12.5 13.2652 12.3946 13.5196 12.2071 13.7071C12.0196 13.8946 11.7652 14 11.5 14H4.5C4.23478 14 3.98043 13.8946 3.79289 13.7071C3.60536 13.5196 3.5 13.2652 3.5 13V7Z" fill="white"/>
<path fill-rule="evenodd" clip-rule="evenodd" d="M16.934 5.176L13.466 7.557C13.3335 7.64797 13.2249 7.76954 13.1493 7.91141C13.0738 8.05328 13.0336 8.21127 13.032 8.372L13 11.587C12.9985 11.7509 13.0372 11.9127 13.1129 12.0582C13.1886 12.2036 13.2989 12.3282 13.434 12.421L16.934 14.824C17.0842 14.9271 17.2596 14.9872 17.4414 14.9979C17.6233 15.0085 17.8045 14.9694 17.9657 14.8846C18.1269 14.7998 18.2618 14.6725 18.356 14.5167C18.4502 14.3608 18.5 14.1821 18.5 14V6C18.5 5.81788 18.4502 5.63923 18.356 5.48334C18.2618 5.32745 18.1269 5.20024 17.9657 5.11544C17.8045 5.03063 17.6233 4.99145 17.4414 5.00212C17.2596 5.0128 17.0842 5.07292 16.934 5.176ZM16.5 12.1L15.005 11.074L15.027 8.911L16.5 7.9V12.1Z" fill="white"/>
</svg>
